<?xml version="1.0" standalone="no"?>
<!DOCTYPE svg PUBLIC "-//W3C//DTD SVG 20010904//EN"
 "http://www.w3.org/TR/2001/REC-SVG-20010904/DTD/svg10.dtd">
<svg version="1.0" xmlns="http://www.w3.org/2000/svg"
 width="702.000000pt" height="674.000000pt" viewBox="0 0 702.000000 674.000000"
 preserveAspectRatio="xMidYMid meet">

<g transform="translate(0.000000,674.000000) scale(0.100000,-0.100000)"
fill="#000000" stroke="none">
<path d="M1600 6478 l0 -63 58 -17 c73 -21 169 -83 210 -136 45 -56 79 -135
92 -212 7 -45 10 -418 8 -1210 l-3 -1145 -280 0 -280 0 -3 708 -2 707 184 0
185 0 3 118 c2 64 2 163 0 220 l-3 102 -584 0 -585 0 0 -69 0 -68 38 -7 c147
-23 291 -174 322 -336 6 -34 10 -729 10 -1984 0 -1703 -2 -1939 -15 -1991 -40
-154 -154 -272 -297 -309 l-53 -13 -3 -67 -3 -66 1640 0 c1764 0 1721 -1 1976
52 120 24 357 105 475 161 633 301 1094 856 1265 1522 70 274 70 267 70 1195
0 891 -1 912 -52 1154 -52 253 -176 550 -320 771 -178 272 -442 530 -723 705
-201 126 -495 244 -720 290 -242 49 -260 50 -1472 50 l-1138 0 0 -62z m2410
-391 c362 -66 661 -202 916 -418 389 -330 619 -777 663 -1294 14 -158 14
-1446 1 -1590 -74 -782 -617 -1433 -1368 -1639 -259 -72 -203 -69 -1547 -73
-665 -2 -1225 -1 -1242 2 l-33 6 0 1085 0 1085 1073 -3 1072 -3 80 -27 c235
-80 414 -271 471 -503 23 -94 23 -259 0 -345 -67 -247 -270 -447 -526 -517
-59 -16 -118 -18 -615 -18 l-550 0 -3 618 -2 617 -215 0 -215 0 0 -569 c0
-340 -4 -590 -10 -621 -13 -67 -50 -150 -92 -202 -41 -53 -137 -115 -210 -136
l-58 -17 0 -68 0 -68 958 4 c836 3 967 6 1038 20 369 75 677 308 836 631 81
166 118 328 118 515 0 252 -63 466 -195 666 -56 84 -205 236 -286 292 -38 25
-69 49 -69 53 0 3 14 19 31 36 127 120 253 360 300 569 18 81 18 349 0 440
-54 271 -198 503 -424 683 -134 107 -273 172 -467 219 -104 26 -110 26 -572
31 l-468 4 0 272 c0 150 3 276 7 280 4 4 345 5 758 3 654 -3 762 -5 845 -20z
m-670 -992 c313 -72 535 -313 570 -621 16 -144 -18 -307 -92 -432 -48 -82
-179 -211 -261 -257 -38 -21 -103 -49 -145 -64 l-77 -26 -467 -3 -468 -3 0
710 0 711 438 0 c351 0 450 -3 502 -15z"/>
</g>
</svg>
